<?xml version="1.0" encoding="UTF-8"?>
<svg width="29px" height="20px" viewBox="0 0 29 20" version="1.1" xmlns="http://www.w3.org/2000/svg" xmlns:xlink="http://www.w3.org/1999/xlink">
    <!-- Generator: Sketch 44.1 (41455) - http://www.bohemiancoding.com/sketch -->
    <title>ask white</title>
    <desc>Created with Sketch.</desc>
    <defs></defs>
    <g id="Page-1" stroke="none" stroke-width="1" fill="none" fill-rule="evenodd">
        <g id="ask-white" transform="translate(15.000000, 9.000000) scale(1, -1) translate(-15.000000, -9.000000) translate(0.000000, -2.000000)" fill-rule="nonzero" fill="#FFFFFF">
            <g id="g3143-Clipped">
                <g id="g3143" transform="translate(0.054924, 0.018051)">
                    <g id="g3149" transform="translate(20.682318, 0.794034)">
                        <path d="M0.0549242424,0.288808664 C0.0549242424,0.433212996 0.173926768,0.550541516 0.320391414,0.550541516 C0.466856061,0.550541516 0.585858586,0.433212996 0.585858586,0.288808664 C0.585858586,0.144404332 0.466856061,0.0270758123 0.320391414,0.0270758123 C0.173926768,0.0270758123 0.0549242424,0.144404332 0.0549242424,0.288808664" id="path3151"></path>
                    </g>
                    <g id="g3153" transform="translate(21.764537, 0.753312)">
                        <path d="M1.47380051,1.45306859 C1.34564394,1.58844765 1.20833333,1.66064982 1.00694444,1.66064982 C0.622474747,1.66064982 0.421085859,1.35379061 0.421085859,1.00180505 C0.421085859,0.649819495 0.659090909,0.370036101 1.02525253,0.370036101 C1.22664141,0.370036101 1.36395202,0.442238267 1.48295455,0.577617329 L1.73926768,0.324909747 C1.55618687,0.11732852 1.29987374,0.036101083 1.02525253,0.036101083 C0.44854798,0.036101083 0.045770202,0.433212996 0.045770202,1.01083032 C0.045770202,1.58844765 0.439393939,1.99458484 1.02525253,1.99458484 C1.29987374,1.99458484 1.55618687,1.90433213 1.73926768,1.6967509 L1.47380051,1.45306859 Z" id="path3155"></path>
                    </g>
                    <g id="g3157" transform="translate(23.707180, 0.805749)">
                        <path d="M0.997790404,1.94945848 C1.55618687,1.94945848 1.98642677,1.51624549 1.98642677,0.974729242 C1.98642677,0.433212996 1.54703283,-3.55271368e-14 0.997790404,-3.55271368e-14 C0.44854798,-3.55271368e-14 0,0.424187726 0,0.965703971 C0,1.50722022 0.439393939,1.94945848 0.997790404,1.94945848 M0.997790404,0.315884477 C1.37310606,0.315884477 1.61111111,0.586642599 1.61111111,0.965703971 C1.61111111,1.34476534 1.37310606,1.61552347 0.997790404,1.61552347 C0.622474747,1.61552347 0.384469697,1.34476534 0.384469697,0.965703971 C0.375315657,0.586642599 0.613320707,0.315884477 0.997790404,0.315884477" id="path3159"></path>
                    </g>
                    <g id="g3161" transform="translate(25.965921, 0.769792)">
                        <path d="M0.0183080808,1.93140794 L0.347853535,1.93140794 L0.347853535,1.64259928 L0.357007576,1.64259928 C0.393623737,1.75090253 0.622474747,1.9765343 0.952020202,1.9765343 C1.22664141,1.9765343 1.41887626,1.85920578 1.53787879,1.63357401 C1.65688131,1.85920578 1.9040404,1.9765343 2.13289141,1.9765343 C2.70959596,1.9765343 2.84690657,1.57039711 2.84690657,1.15523466 L2.84690657,0.0722021661 L2.48989899,0.0722021661 L2.48989899,1.1101083 C2.48989899,1.3898917 2.43497475,1.65162455 2.08712121,1.65162455 C1.74842172,1.65162455 1.61111111,1.41696751 1.61111111,1.09205776 L1.61111111,0.0722021661 L1.25410354,0.0722021661 L1.25410354,1.04693141 C1.25410354,1.39891697 1.19917929,1.65162455 0.860479798,1.65162455 C0.604166667,1.65162455 0.375315657,1.46209386 0.375315657,1.03790614 L0.375315657,0.0722021661 L0.0183080808,0.0722021661 L0.0183080808,1.93140794 Z" id="path3163"></path>
                    </g>
                    <g id="g3165" transform="translate(0.057789, 0.038078)">
                        <path d="M2.2885101,2.53610108 C2.49905303,2.3465704 2.71875,2.17509025 2.95675505,2.00361011 C4.02777778,1.23646209 5.33680556,0.685920578 6.81060606,0.36101083 C8.39425505,0.00902527076 10.0236742,-0.0541516245 11.6347854,0.0992779783 C12.3579545,0.171480144 13.0719697,0.279783394 13.7859848,0.433212996 C14.7380051,0.631768953 15.6808712,0.911552347 16.5962753,1.25451264 C17.0631313,1.42599278 17.5208333,1.61552347 17.9693813,1.82310469 C19.03125,2.31046931 20.0473485,2.88808664 20.9993687,3.55595668 C21.3197601,3.78158845 21.6401515,4.02527076 21.9422348,4.26895307 C22.0886995,4.38628159 22.2351641,4.51263538 22.3724747,4.6299639 C22.5921717,4.81949458 22.8027146,5.01805054 23.0132576,5.22563177 C23.0498737,5.26173285 23.0864899,5.29783394 23.1322601,5.34296029 C23.3702652,5.5866426 23.6082702,5.83032491 23.8371212,6.09205776 C24.0568182,6.34476534 24.2673611,6.60649819 24.46875,6.86823105 C25.4024621,8.11371841 26.0340909,9.44945848 26.3270202,10.767148 C26.6199495,12.1119134 26.5558712,13.5288809 26.052399,14.7924188 C25.9150884,15.1444043 25.7411616,15.4783394 25.5489268,15.7942238 C25.2834596,16.2274368 24.9722222,16.6245487 24.6152146,16.9855596 C24.4962121,17.1119134 24.3589015,17.2202166 24.2215909,17.3285199 C24.0842803,17.4548736 23.9286616,17.5722022 23.782197,17.6805054 C23.4709596,17.9151625 23.1505682,18.131769 22.8118687,18.3212996 C21.8415404,18.8718412 20.7796717,19.2509025 19.6903409,19.4855596 C18.2348485,19.801444 16.7335859,19.8736462 15.2506313,19.7743682 C14.4359217,19.7111913 13.6212121,19.5938628 12.8248106,19.4314079 C11.8636364,19.232852 10.8933081,18.9530686 9.93213384,18.5920578 C9.4927399,18.4296029 9.0625,18.2490975 8.65056818,18.0595668 C7.22253788,17.4368231 5.9592803,16.6787004 4.85164141,15.8122744 C4.61363636,15.6227437 4.37563131,15.4241877 4.1467803,15.2256318 C4.01862374,15.1083032 3.88131313,14.9909747 3.75315657,14.8736462 C3.38699495,14.5306859 3.03914141,14.1787004 2.70044192,13.799639 C2.45328283,13.5198556 2.22443182,13.2310469 1.99558081,12.9241877 C1.18087121,11.8140794 0.530934343,10.5595668 0.21969697,9.21480144 C-0.091540404,7.8700361 -0.0640782828,6.45306859 0.430239899,5.17148014 C0.466856061,5.07220217 0.512626263,4.97292419 0.549242424,4.87364621 C0.67739899,4.58483755 0.833017677,4.30505415 0.997790404,4.03429603 C1.17171717,3.75451264 1.36395202,3.49277978 1.58364899,3.24909747 C1.62026515,3.21299639 1.64772727,3.16787004 1.68434343,3.13176895 C1.87657828,2.91516245 2.07796717,2.7166065 2.2885101,2.53610108 Z M22.3438318,13.3522834 C22.3804479,13.3252076 22.389602,13.271056 22.3346777,13.2078791 C22.2614454,13.0815253 20.2841727,9.89560469 20.2841727,9.89560469 C20.2841727,9.89560469 21.3460414,6.87213899 21.3918116,6.7457852 C21.4375818,6.61943141 21.4101196,6.58333032 21.263655,6.55625451 C21.1812686,6.54722924 20.3116348,6.41185018 19.9363191,6.34867329 C19.7807004,6.33062274 19.7532383,6.36672383 19.7074681,6.48405235 C19.6616979,6.61040614 18.6181373,9.52556859 18.6181373,9.52556859 C18.6181373,9.52556859 17.9956626,6.33964801 17.9682004,6.18621841 C17.9315843,6.03278881 17.87666,6.03278881 17.7759656,6.01473827 C17.4281121,5.96058664 16.6225565,5.83423285 16.4577838,5.80715704 C16.1740085,5.76203069 16.1648545,5.77105596 16.2197787,6.07791516 C16.2563949,6.27647112 18.2977459,17.1428971 18.325208,17.3143773 C18.3709782,17.5490343 18.4350565,17.6031859 18.6181373,17.6302617 C18.764602,17.6573375 19.7074681,17.7566155 19.918011,17.7566155 C20.1193999,17.7566155 20.1651701,17.7024639 20.1193999,17.440731 C20.0827838,17.2421751 18.6913696,9.89560469 18.6913696,9.89560469 C18.6913696,9.89560469 20.5221777,12.9371209 20.586256,13.0454242 C20.6594883,13.1537274 20.7235666,13.2078791 20.8700313,13.2259296 C21.2361929,13.2620307 22.0600565,13.3522834 22.1973671,13.3613087 C22.2705994,13.3613087 22.3163696,13.3703339 22.3438318,13.3522834 Z M15.9268494,12.4948827 C16.0733141,12.440731 16.1007762,12.3414531 16.055006,12.2150993 C16.0275439,12.1338718 15.6522282,11.0779152 15.6522282,11.0779152 C15.6522282,11.0779152 15.1304479,11.4660018 14.8375186,11.4840523 C14.5445893,11.5021029 14.3615085,11.4208755 14.2241979,11.2493953 C14.0594252,11.0688899 13.9312686,10.7259296 14.0960414,10.4280957 C14.1875818,10.2656408 14.2791222,10.139287 15.1121398,9.39018953 C16.1465464,8.46961191 15.9451575,7.26022563 15.6156121,6.63748195 C15.2952206,6.03278881 14.6361297,5.46419675 13.9038065,5.31979242 C12.8327838,5.11221119 12.1736929,5.25661552 11.8258393,5.40101986 C11.5695262,5.5093231 11.5420641,5.59055054 11.6152964,5.86130866 C11.6793747,6.06888989 11.981458,7.1158213 11.981458,7.1158213 C11.981458,7.1158213 12.1736929,6.71870939 12.7870136,6.58333032 C13.4003343,6.45697653 13.8488823,6.70968412 14.0045009,7.02556859 C14.1326575,7.28730144 14.1509656,7.89199458 13.2538696,8.68621841 C12.8510919,9.04722924 12.5581626,9.4623917 12.43916,9.81437726 C12.3201575,10.1753881 12.2743873,10.8883845 12.6130868,11.5291787 C12.9517863,12.1609477 13.6017232,12.5670848 14.5354353,12.6753881 C15.148756,12.7475903 15.6705363,12.5851354 15.9268494,12.4948827 Z M10.1506499,16.1681679 C10.2147282,15.3829693 10.9653595,5.37394404 10.9836676,5.21148917 C11.0019757,4.99488267 10.9745136,4.93170578 10.7365085,4.89560469 C10.5991979,4.87755415 9.64717771,4.72412455 9.4183267,4.68802347 C9.21693782,4.66094765 9.20778378,4.73314982 9.20778378,4.85047834 C9.19862973,5.12123646 9.18032165,6.67358303 9.18032165,6.67358303 L6.75450095,6.29452166 C6.75450095,6.29452166 5.88486711,4.27286101 5.86655903,4.22773466 C5.82994287,4.13748195 5.78417266,4.11040614 5.66517014,4.0923556 C5.29900852,4.03820397 4.08152115,3.83964801 3.94421054,3.82159747 C3.75197569,3.79452166 3.66958933,3.83062274 3.77028378,4.0291787 C3.83436206,4.17358303 9.33594034,15.373944 9.73871812,16.1952437 C9.85772064,16.438926 10.1231878,16.5021029 10.1506499,16.1681679 Z M7.40443782,7.88296931 L9.18947569,8.16275271 L9.17116761,11.9894675 L7.40443782,7.88296931 Z" id="Combined-Shape"></path>
                    </g>
                </g>
            </g>
        </g>
    </g>
</svg>
