<?xml version="1.0" encoding="UTF-8"?>
<svg width="29px" height="20px" viewBox="0 0 29 20" version="1.1" xmlns="http://www.w3.org/2000/svg" xmlns:xlink="http://www.w3.org/1999/xlink">
    <!-- Generator: Sketch 44.1 (41455) - http://www.bohemiancoding.com/sketch -->
    <title>ask color</title>
    <desc>Created with Sketch.</desc>
    <defs></defs>
    <g id="Page-1" stroke="none" stroke-width="1" fill="none" fill-rule="evenodd">
        <g id="search-select-other-photo" transform="translate(-435.000000, -511.000000)" fill-rule="nonzero">
            <g id="ask-color" transform="translate(449.500000, 521.000000) scale(1, -1) translate(-449.500000, -521.000000) translate(435.000000, 511.000000)">
                <g id="g3143-Clipped">
                    <g id="g3143" transform="translate(0.054924, 0.018051)">
                        <g id="g3149" transform="translate(20.682318, 0.794034)" fill="#666666">
                            <path d="M0.0549242424,0.288808664 C0.0549242424,0.433212996 0.173926768,0.550541516 0.320391414,0.550541516 C0.466856061,0.550541516 0.585858586,0.433212996 0.585858586,0.288808664 C0.585858586,0.144404332 0.466856061,0.0270758123 0.320391414,0.0270758123 C0.173926768,0.0270758123 0.0549242424,0.144404332 0.0549242424,0.288808664" id="path3151"></path>
                        </g>
                        <g id="g3153" transform="translate(21.764537, 0.753312)" fill="#666666">
                            <path d="M1.47380051,1.45306859 C1.34564394,1.58844765 1.20833333,1.66064982 1.00694444,1.66064982 C0.622474747,1.66064982 0.421085859,1.35379061 0.421085859,1.00180505 C0.421085859,0.649819495 0.659090909,0.370036101 1.02525253,0.370036101 C1.22664141,0.370036101 1.36395202,0.442238267 1.48295455,0.577617329 L1.73926768,0.324909747 C1.55618687,0.11732852 1.29987374,0.036101083 1.02525253,0.036101083 C0.44854798,0.036101083 0.045770202,0.433212996 0.045770202,1.01083032 C0.045770202,1.58844765 0.439393939,1.99458484 1.02525253,1.99458484 C1.29987374,1.99458484 1.55618687,1.90433213 1.73926768,1.6967509 L1.47380051,1.45306859 Z" id="path3155"></path>
                        </g>
                        <g id="g3157" transform="translate(23.707180, 0.805749)" fill="#666666">
                            <path d="M0.997790404,1.94945848 C1.55618687,1.94945848 1.98642677,1.51624549 1.98642677,0.974729242 C1.98642677,0.433212996 1.54703283,-3.55271368e-14 0.997790404,-3.55271368e-14 C0.44854798,-3.55271368e-14 0,0.424187726 0,0.965703971 C0,1.50722022 0.439393939,1.94945848 0.997790404,1.94945848 M0.997790404,0.315884477 C1.37310606,0.315884477 1.61111111,0.586642599 1.61111111,0.965703971 C1.61111111,1.34476534 1.37310606,1.61552347 0.997790404,1.61552347 C0.622474747,1.61552347 0.384469697,1.34476534 0.384469697,0.965703971 C0.375315657,0.586642599 0.613320707,0.315884477 0.997790404,0.315884477" id="path3159"></path>
                        </g>
                        <g id="g3161" transform="translate(25.965921, 0.769792)" fill="#666666">
                            <path d="M0.0183080808,1.93140794 L0.347853535,1.93140794 L0.347853535,1.64259928 L0.357007576,1.64259928 C0.393623737,1.75090253 0.622474747,1.9765343 0.952020202,1.9765343 C1.22664141,1.9765343 1.41887626,1.85920578 1.53787879,1.63357401 C1.65688131,1.85920578 1.9040404,1.9765343 2.13289141,1.9765343 C2.70959596,1.9765343 2.84690657,1.57039711 2.84690657,1.15523466 L2.84690657,0.0722021661 L2.48989899,0.0722021661 L2.48989899,1.1101083 C2.48989899,1.3898917 2.43497475,1.65162455 2.08712121,1.65162455 C1.74842172,1.65162455 1.61111111,1.41696751 1.61111111,1.09205776 L1.61111111,0.0722021661 L1.25410354,0.0722021661 L1.25410354,1.04693141 C1.25410354,1.39891697 1.19917929,1.65162455 0.860479798,1.65162455 C0.604166667,1.65162455 0.375315657,1.46209386 0.375315657,1.03790614 L0.375315657,0.0722021661 L0.0183080808,0.0722021661 L0.0183080808,1.93140794 Z" id="path3163"></path>
                        </g>
                        <g id="g3165" transform="translate(0.057789, 0.038078)" fill="#CE2027">
                            <path d="M2.2885101,2.53610108 C2.49905303,2.3465704 2.71875,2.17509025 2.95675505,2.00361011 C4.02777778,1.23646209 5.33680556,0.685920578 6.81060606,0.36101083 C8.39425505,0.00902527076 10.0236742,-0.0541516245 11.6347854,0.0992779783 C12.3579545,0.171480144 13.0719697,0.279783394 13.7859848,0.433212996 C14.7380051,0.631768953 15.6808712,0.911552347 16.5962753,1.25451264 C17.0631313,1.42599278 17.5208333,1.61552347 17.9693813,1.82310469 C19.03125,2.31046931 20.0473485,2.88808664 20.9993687,3.55595668 C21.3197601,3.78158845 21.6401515,4.02527076 21.9422348,4.26895307 C22.0886995,4.38628159 22.2351641,4.51263538 22.3724747,4.6299639 C22.5921717,4.81949458 22.8027146,5.01805054 23.0132576,5.22563177 C23.0498737,5.26173285 23.0864899,5.29783394 23.1322601,5.34296029 C23.3702652,5.5866426 23.6082702,5.83032491 23.8371212,6.09205776 C24.0568182,6.34476534 24.2673611,6.60649819 24.46875,6.86823105 C25.4024621,8.11371841 26.0340909,9.44945848 26.3270202,10.767148 C26.6199495,12.1119134 26.5558712,13.5288809 26.052399,14.7924188 C25.9150884,15.1444043 25.7411616,15.4783394 25.5489268,15.7942238 C25.2834596,16.2274368 24.9722222,16.6245487 24.6152146,16.9855596 C24.4962121,17.1119134 24.3589015,17.2202166 24.2215909,17.3285199 C24.0842803,17.4548736 23.9286616,17.5722022 23.782197,17.6805054 C23.4709596,17.9151625 23.1505682,18.131769 22.8118687,18.3212996 C21.8415404,18.8718412 20.7796717,19.2509025 19.6903409,19.4855596 C18.2348485,19.801444 16.7335859,19.8736462 15.2506313,19.7743682 C14.4359217,19.7111913 13.6212121,19.5938628 12.8248106,19.4314079 C11.8636364,19.232852 10.8933081,18.9530686 9.93213384,18.5920578 C9.4927399,18.4296029 9.0625,18.2490975 8.65056818,18.0595668 C7.22253788,17.4368231 5.9592803,16.6787004 4.85164141,15.8122744 C4.61363636,15.6227437 4.37563131,15.4241877 4.1467803,15.2256318 C4.01862374,15.1083032 3.88131313,14.9909747 3.75315657,14.8736462 C3.38699495,14.5306859 3.03914141,14.1787004 2.70044192,13.799639 C2.45328283,13.5198556 2.22443182,13.2310469 1.99558081,12.9241877 C1.18087121,11.8140794 0.530934343,10.5595668 0.21969697,9.21480144 C-0.091540404,7.8700361 -0.0640782828,6.45306859 0.430239899,5.17148014 C0.466856061,5.07220217 0.512626263,4.97292419 0.549242424,4.87364621 C0.67739899,4.58483755 0.833017677,4.30505415 0.997790404,4.03429603 C1.17171717,3.75451264 1.36395202,3.49277978 1.58364899,3.24909747 C1.62026515,3.21299639 1.64772727,3.16787004 1.68434343,3.13176895 C1.87657828,2.91516245 2.07796717,2.7166065 2.2885101,2.53610108" id="path3167"></path>
                        </g>
                        <g id="g3169" transform="translate(3.736533, 3.778448)" fill="#FFFFFF">
                            <path d="M18.6650884,9.61191336 C18.6376263,9.6299639 18.5918561,9.62093863 18.5186237,9.62093863 C18.3813131,9.61191336 17.5574495,9.52166065 17.1912879,9.48555957 C17.0448232,9.46750903 16.9807449,9.4133574 16.9075126,9.30505415 C16.8434343,9.1967509 15.0126263,6.15523466 15.0126263,6.15523466 C15.0126263,6.15523466 16.4040404,13.5018051 16.4406566,13.700361 C16.4864268,13.9620939 16.4406566,14.0162455 16.2392677,14.0162455 C16.0287247,14.0162455 15.0858586,13.9169675 14.9393939,13.8898917 C14.7563131,13.8628159 14.6922348,13.8086643 14.6464646,13.5740072 C14.6190025,13.4025271 12.5776515,2.53610108 12.5410354,2.33754513 C12.4861111,2.03068592 12.4952652,2.02166065 12.7790404,2.066787 C12.9438131,2.09386282 13.7493687,2.22021661 14.0972222,2.27436823 C14.1979167,2.29241877 14.2528409,2.29241877 14.2894571,2.44584838 C14.3169192,2.59927798 14.9393939,5.78519856 14.9393939,5.78519856 C14.9393939,5.78519856 15.9829545,2.8700361 16.0287247,2.74368231 C16.0744949,2.62635379 16.1019571,2.59025271 16.2575758,2.60830325 C16.6328914,2.67148014 17.5025253,2.80685921 17.5849116,2.81588448 C17.7313763,2.84296029 17.7588384,2.87906137 17.7130682,3.00541516 C17.667298,3.13176895 16.6054293,6.15523466 16.6054293,6.15523466 C16.6054293,6.15523466 18.582702,9.34115523 18.6559343,9.46750903 C18.7108586,9.53068592 18.7017045,9.58483755 18.6650884,9.61191336 L18.6650884,9.61191336 Z M12.2481061,8.75451264 C11.9917929,8.84476534 11.4700126,9.00722022 10.8566919,8.93501805 C9.9229798,8.8267148 9.27304293,8.42057762 8.93434343,7.78880866 C8.59564394,7.14801444 8.64141414,6.43501805 8.76041667,6.07400722 C8.87941919,5.72202166 9.17234848,5.30685921 9.57512626,4.94584838 C10.4722222,4.15162455 10.4539141,3.54693141 10.3257576,3.28519856 C10.1701389,2.96931408 9.72159091,2.7166065 9.1082702,2.84296029 C8.49494949,2.97833935 8.30271465,3.37545126 8.30271465,3.37545126 C8.30271465,3.37545126 8.00063131,2.32851986 7.93655303,2.12093863 C7.86332071,1.85018051 7.89078283,1.76895307 8.14709596,1.66064982 C8.49494949,1.51624549 9.1540404,1.37184116 10.2250631,1.57942238 C10.9573864,1.72382671 11.6164773,2.29241877 11.9368687,2.89711191 C12.2664141,3.5198556 12.467803,4.72924188 11.4333965,5.64981949 C10.6003788,6.39891697 10.5088384,6.52527076 10.417298,6.68772563 C10.2525253,6.98555957 10.3806818,7.32851986 10.5454545,7.50902527 C10.6827652,7.68050542 10.865846,7.76173285 11.1587753,7.74368231 C11.4517045,7.72563177 11.9734848,7.33754513 11.9734848,7.33754513 C11.9734848,7.33754513 12.3488005,8.39350181 12.3762626,8.47472924 C12.4220328,8.60108303 12.3945707,8.70036101 12.2481061,8.75451264 L12.2481061,8.75451264 Z M3.72569444,4.14259928 L5.49242424,8.24909747 L5.51073232,4.42238267 L3.72569444,4.14259928 Z M6.47190657,12.4277978 C6.44444444,12.7617329 6.17897727,12.698556 6.05997475,12.4548736 C5.65719697,11.633574 0.155618687,0.433212996 0.091540404,0.288808664 C-0.0091540404,0.0902527076 0.0732323232,0.0541516245 0.265467172,0.0812274368 C0.402777778,0.0992779783 1.62026515,0.297833935 1.98642677,0.35198556 C2.10542929,0.370036101 2.15119949,0.397111913 2.18781566,0.487364621 C2.20612374,0.532490975 3.07575758,2.55415162 3.07575758,2.55415162 L5.50157828,2.933213 C5.50157828,2.933213 5.51988636,1.38086643 5.5290404,1.1101083 C5.5290404,0.992779783 5.53819444,0.920577617 5.73958333,0.94765343 C5.96843434,0.983754513 6.92045455,1.13718412 7.05776515,1.15523466 C7.2957702,1.19133574 7.32323232,1.25451264 7.30492424,1.47111913 C7.28661616,1.63357401 6.53598485,11.6425993 6.47190657,12.4277978 L6.47190657,12.4277978 Z" id="path3171"></path>
                        </g>
                    </g>
                </g>
            </g>
        </g>
    </g>
</svg>
