<?xml version="1.0" encoding="UTF-8"?>
<svg width="60px" height="23px" viewBox="0 0 60 23" version="1.1" xmlns="http://www.w3.org/2000/svg" xmlns:xlink="http://www.w3.org/1999/xlink">
    <!-- Generator: Sketch 44.1 (41455) - http://www.bohemiancoding.com/sketch -->
    <title>bing white</title>
    <desc>Created with Sketch.</desc>
    <defs></defs>
    <g id="Page-1" stroke="none" stroke-width="1" fill="none" fill-rule="evenodd">
        <g id="bing-white" fill-rule="nonzero" fill="#FFFFFF">
            <path d="M53.203125,22.7653061 C52.078125,22.4836735 51.5625,22.2959184 51.5625,22.1785714 C51.5625,22.1081633 51.9375,20.9112245 51.9375,20.9112245 L52.3125,21.0989796 C53.625,21.7795918 55.8515625,21.7326531 56.9296875,21.0285714 C57.4453125,20.6953061 57.890625,20.049898 58.1015625,19.397449 C58.265625,18.8388776 58.4296875,16.7665306 58.2890625,16.7665306 C58.265625,16.7665306 58.0078125,17.0129592 57.7265625,17.3157143 C56.1328125,19.0547959 53.0390625,18.8623469 51.7265625,16.9378571 C51.0703125,15.9685714 50.90625,15.3630612 50.90625,13.7319388 C50.90625,12.5138776 50.9296875,12.1782653 51.1171875,11.5539796 C51.421875,10.6245918 52.078125,9.63183673 52.734375,9.12959184 C53.6953125,8.41377551 55.2890625,8.12979592 56.4140625,8.47244898 C56.9765625,8.64377551 57.703125,9.14367347 57.984375,9.56612245 C58.1015625,9.73510204 58.21875,9.87357143 58.265625,9.87357143 C58.3125,9.87357143 58.3359375,9.57316327 58.3359375,9.20469388 L58.3359375,8.53816327 L59.8828125,8.53816327 L59.8828125,13.4479592 C59.8828125,18.017449 59.859375,18.4164286 59.671875,19.1768367 C59.1328125,21.3336735 58.2421875,22.272449 56.25,22.7183673 C55.21875,22.9765306 54.046875,22.9765306 53.203125,22.7653061 L53.203125,22.7653061 Z M56.1796875,17.1185714 C56.8828125,16.9120408 57.6328125,16.2243878 58.0078125,15.4405102 C58.2890625,14.8866327 58.2890625,14.797449 58.2890625,13.3118367 C58.2890625,11.8919388 58.265625,11.7182653 58.0546875,11.2559184 C57.5390625,10.1997959 56.25,9.4605102 55.171875,9.61306122 C53.3203125,9.87357143 52.2421875,11.577449 52.40625,13.9807143 C52.5,15.3654082 53.0859375,16.4379592 53.953125,16.8862245 C54.796875,17.3180612 55.3125,17.3720408 56.1796875,17.1185714 L56.1796875,17.1185714 Z M0,19.1932653 L0.08671875,0 L0.2390625,0.0680612245 L5.18671875,1.60765306 L5.2265625,14.5533673 L0.403125,18.8271429 L0.3328125,18.9843878 L12.6351563,12.5467347 L9.0890625,10.7442857 L7.03828125,6.08561224 L18.3867188,9.50510204 L18.3867188,15.0978571 L5.2171875,22.8357143 L0,19.1932653 Z M29.015625,18.4516327 C28.2421875,18.2544898 27.515625,17.7944898 27.2109375,17.3180612 C27.09375,17.1279592 26.953125,16.9707143 26.90625,16.9707143 C26.859375,16.9707143 26.8125,17.2711224 26.8125,17.6395918 L26.8125,18.3084694 L25.3125,18.3084694 L25.3359375,11.0986735 C25.359375,5.42377551 25.40625,3.89826531 25.5,3.93581633 C25.5703125,3.96163265 25.8984375,4.06020408 26.2265625,4.15408163 L26.8125,4.32540816 L26.8359375,7.29897959 L26.859375,10.2702041 L27.328125,9.68816327 C27.6796875,9.25397959 27.984375,9.00989796 28.5,8.74234694 C29.1796875,8.39734694 29.25,8.38326531 30.3046875,8.38326531 C31.3125,8.38326531 31.4296875,8.40673469 32.0625,8.72122449 C33.5390625,9.45112245 34.265625,10.9062245 34.2421875,13.2179592 C34.2421875,15.6752041 33.2109375,17.5809184 31.5703125,18.2052041 C30.984375,18.4305102 29.5078125,18.5713265 29.015625,18.4516327 L29.015625,18.4516327 Z M30.8671875,16.9918367 C32.109375,16.3487755 32.859375,14.757551 32.7421875,12.9597959 C32.671875,12.0538776 32.6484375,11.8966327 32.3671875,11.2418367 C32.0859375,10.6457143 31.6171875,10.1387755 31.078125,9.84540816 C30.46875,9.52857143 29.296875,9.53561224 28.640625,9.86887755 C27.9375,10.2068367 27.28125,10.9836735 27.0234375,11.7628571 C26.765625,12.5889796 26.7421875,14.5040816 26.9765625,15.2785714 C27.234375,16.0812245 28.1015625,16.9167347 28.96875,17.1983673 C29.390625,17.3391837 30.421875,17.2312245 30.8671875,17.0012245 L30.8671875,16.9918367 Z M36.3515625,8.53816327 L37.125,8.53816327 L37.8984375,8.53816327 L37.9453125,18.3084694 L36.3515625,18.3084694 L36.3515625,8.53816327 Z M40.5703125,13.4221429 L40.5703125,8.53816327 L41.34375,8.53816327 L42.1171875,8.53816327 L42.1171875,9.30795918 C42.1171875,9.7327551 42.140625,10.0777551 42.1875,10.0754082 C42.234375,10.0754082 42.3984375,9.89469388 42.5390625,9.67642857 C43.4296875,8.39734694 45.515625,7.93734694 46.9921875,8.69306122 C47.4375,8.92071429 47.6953125,9.13897959 47.953125,9.50040816 C48.5859375,10.4696939 48.609375,10.6785714 48.65625,14.682449 L48.703125,18.3084694 L47.15625,18.3084694 L47.109375,14.8889796 C47.0859375,12.4716327 47.0390625,11.347449 46.9453125,11.0564286 C46.7578125,10.4579592 46.0546875,9.82663265 45.421875,9.67408163 C44.0625,9.35020408 42.609375,10.2819388 42.2109375,11.7229592 C42.1640625,11.922449 42.1171875,13.4784694 42.1171875,15.1964286 L42.1171875,18.3084694 L40.5703125,18.3084694 L40.5703125,13.4221429 L40.5703125,13.4221429 Z M38.0859375,5.22193878 C38.0864895,5.4758166 37.9848906,5.7192145 37.8040785,5.89718139 C37.6232664,6.07514827 37.3784858,6.17267925 37.125,6.1677551 C36.6056678,6.16491154 36.1864592,5.74198427 36.1875,5.22193878 C36.18775,4.70280864 36.6065829,4.28130893 37.125,4.27846939 C37.378079,4.27355373 37.6224986,4.3707652 37.8032408,4.54822182 C37.983983,4.72567845 38.0858592,4.9684678 38.0859375,5.22193878 L38.0859375,5.22193878 Z" id="Shape"></path>
        </g>
    </g>
</svg>
