<?xml version="1.0" encoding="utf-8"?>
<!-- Generator: Adobe Illustrator 18.0.0, SVG Export Plug-In . SVG Version: 6.00 Build 0)  -->
<!DOCTYPE svg PUBLIC "-//W3C//DTD SVG 1.1//EN" "http://www.w3.org/Graphics/SVG/1.1/DTD/svg11.dtd">
<svg version="1.1" id="Слой_1" xmlns="http://www.w3.org/2000/svg" xmlns:xlink="http://www.w3.org/1999/xlink" x="0px" y="0px"
	 viewBox="0 0 1024 500" enable-background="new 0 0 1024 500" xml:space="preserve">
<path id="path2227" fill="#2319DC" d="M407.9,258.5c35.8-6.8,30.7-49.5,29-59.7c-1.7-13.7-18.8-39.3-41-37.5
	c-29,3.4-32.4,44.4-32.4,44.4C358.4,226.1,372.1,267.1,407.9,258.5 M472.7,186.9c20.5,0,35.8-22.2,35.8-51.2
	c0-27.3-15.4-51.2-35.8-51.2s-35.8,22.2-35.8,51.2S454,186.9,472.7,186.9 M558.1,190.3c25.6,3.4,42.7-23.9,46.1-46.1
	c3.4-20.5-13.7-46.1-32.4-49.5c-18.8-5.1-42.7,25.6-44.4,44.4C525.7,164.7,532.5,186.9,558.1,190.3 M662.2,226.1
	c0-10.2-8.5-41-39.3-41c-30.7,0-35.8,29-35.8,49.5c0,18.8,1.7,46.1,41,46.1C667.3,280.7,662.2,236.3,662.2,226.1 M622.9,316.6
	c0,0-41-30.7-64.9-64.9c-32.4-49.5-78.5-29-93.9-3.4c-15.4,25.6-39.3,41-42.7,46.1c-3.4,3.4-49.5,29-39.3,73.4
	c10.2,44.4,46.1,44.4,46.1,44.4s25.6,3.4,56.3-3.4c30.7-6.8,56.3,1.7,56.3,1.7s71.7,23.9,90.5-22.2
	C653.7,340.5,622.9,316.6,622.9,316.6"/>
<path id="path2229" fill="#FFFFFF" d="M479.6,272.2v30.7h-23.9c0,0-23.9,1.7-32.4,30.7c-3.4,18.8,3.4,29,3.4,32.4
	c1.7,1.7,8.5,15.4,29,20.5h46.1V273.9L479.6,272.2z M479.6,366.1h-18.8c0,0-13.7,0-17.1-15.4c-1.7-6.8,0-13.7,1.7-17.1
	c1.7-3.4,5.1-10.2,13.7-11.9h20.5V366.1L479.6,366.1z"/>
<path id="path2231" fill="#FFFFFF" d="M512,304.6v59.7c0,0,1.7,15.4,22.2,20.5h52.9v-78.5h-23.9v59.7H541c0,0-6.8-1.7-8.5-6.8v-52.9
	L512,304.6z"/>
<path id="path2233" fill="#E10601" d="M839.7,267.1v-25.6H675.8v25.6h70l-6.8,15.4h-59.7V407h141.7c15.4,0,13.7-15.4,13.7-15.4
	V282.4h-59.7l5.1-15.4L839.7,267.1L839.7,267.1L839.7,267.1z M809,379.7c0,0-1.7,3.4-3.4,3.4h-93.9v-29h99L809,379.7L809,379.7z
	 M809,330.2h-99v-27.3h99V330.2L809,330.2z"/>
<path id="path2235" fill="#E10601" d="M1027.4,241.5h-64.9v-11.9h-30.7v11.9h-73.4v163.8h27.3V261.9h141.7V241.5z M1010.3,275.6
	v-10.2h-25.6v10.2h-52.9v-8.5h-23.9v8.5h-17.1v18.8h17.1v35.8h88.7c11.9,0,13.7-13.7,13.7-13.7v-22.2h18.8v-18.8H1010.3
	L1010.3,275.6L1010.3,275.6z M984.7,308c0,0-1.7,3.4-5.1,3.4h-47.8v-17.1h52.9V308L984.7,308L984.7,308L984.7,308z M894.3,355.8
	l41,23.9c-3.4,3.4-17.1,8.5-17.1,8.5h-27.3V407h37.5c11.9-1.7,32.4-11.9,32.4-11.9c8.5,8.5,25.6,11.9,25.6,11.9h42.7v-18.8h-32.4
	c-8.5-1.7-17.1-6.8-17.1-6.8l47.8-27.3v-15.4H894.3L894.3,355.8L894.3,355.8L894.3,355.8z M979.6,355.8l-23.9,11.9l-22.2-11.9
	L979.6,355.8L979.6,355.8z"/>
<path id="path2237" fill="#E10601" d="M312.3,268.8h35.8v-30.7h-35.8V268.8z M312.3,405.3h35.8V282.4h-35.8V405.3z"/>
<path id="path2239" fill="#E10601" d="M254.3,282.4h-76.8V308h66.6c0,0,15.4,3.4,15.4,13.7v8.5h-59.7c0,0-23.9,1.7-30.7,30.7
	c-1.7,13.7,0,20.5,1.7,22.2c1.7,1.7,8.5,18.8,29,22.2h95.6v-88.7C295.3,318.3,291.8,287.5,254.3,282.4 M261.1,381.4h-49.5
	c-6.8-3.4-8.5-6.8-8.5-8.5c0-1.7-1.7-5.1,0-8.5c3.4-6.8,10.2-8.5,10.2-8.5h47.8V381.4z"/>
<path id="path2241" fill="#E10601" d="M162.1,362.6c0-30.7-25.6-41-25.6-41C158.7,309.7,157,279,157,279c-1.7-46.1-58-44.4-58-44.4
	H10.2V407h97.3C165.5,407,162.1,362.6,162.1,362.6 M105.8,376.3L105.8,376.3h-58v-37.5h58h1.7c0,0,11.9,1.7,15.4,11.9
	c0,0,1.7,10.2-3.4,17.1C121.2,367.8,116.1,374.6,105.8,376.3 M119.5,296.1c0,0-3.4,6.8-13.7,8.5h-58v-35.8h56.3c0,0,11.9,0,17.1,8.5
	C121.2,279,122.9,289.3,119.5,296.1"/>
</svg>
