<?xml version="1.0" encoding="UTF-8"?>
<svg width="60px" height="20px" viewBox="0 0 60 20" version="1.1" xmlns="http://www.w3.org/2000/svg" xmlns:xlink="http://www.w3.org/1999/xlink">
    <!-- Generator: Sketch 44.1 (41455) - http://www.bohemiancoding.com/sketch -->
    <title>google color</title>
    <desc>Created with Sketch.</desc>
    <defs></defs>
    <g id="Page-1" stroke="none" stroke-width="1" fill="none" fill-rule="evenodd">
        <g id="search-select-other-photo" transform="translate(-425.000000, -339.000000)" fill-rule="nonzero">
            <g id="Group-9" transform="translate(415.000000, 329.000000)">
                <g id="Group-7">
                    <g id="google-color" transform="translate(10.000000, 10.000000)">
                        <path d="M25.7222222,10.4844444 C25.7222222,13.3222222 23.5022222,15.4133333 20.7777778,15.4133333 C18.0533333,15.4133333 15.8333333,13.3222222 15.8333333,10.4844444 C15.8333333,7.62666667 18.0533333,5.55555556 20.7777778,5.55555556 C23.5022222,5.55555556 25.7222222,7.62666667 25.7222222,10.4844444 Z M23.5577778,10.4844444 C23.5577778,8.71111111 22.2711111,7.49777778 20.7777778,7.49777778 C19.2844444,7.49777778 17.9977778,8.71111111 17.9977778,10.4844444 C17.9977778,12.24 19.2844444,13.4711111 20.7777778,13.4711111 C22.2711111,13.4711111 23.5577778,12.2377778 23.5577778,10.4844444 Z" id="Shape" fill="#EA4335"></path>
                        <path d="M36.3888889,10.4844444 C36.3888889,13.3222222 34.1688889,15.4133333 31.4444444,15.4133333 C28.72,15.4133333 26.5,13.3222222 26.5,10.4844444 C26.5,7.62888889 28.72,5.55555556 31.4444444,5.55555556 C34.1688889,5.55555556 36.3888889,7.62666667 36.3888889,10.4844444 Z M34.2244444,10.4844444 C34.2244444,8.71111111 32.9377778,7.49777778 31.4444444,7.49777778 C29.9511111,7.49777778 28.6644444,8.71111111 28.6644444,10.4844444 C28.6644444,12.24 29.9511111,13.4711111 31.4444444,13.4711111 C32.9377778,13.4711111 34.2244444,12.2377778 34.2244444,10.4844444 Z" id="Shape" fill="#FBBC05"></path>
                        <path d="M46.6111111,5.85333333 L46.6111111,14.7022222 C46.6111111,18.3422222 44.4644444,19.8288889 41.9266667,19.8288889 C39.5377778,19.8288889 38.1,18.2311111 37.5577778,16.9244444 L39.4422222,16.14 C39.7777778,16.9422222 40.6,17.8888889 41.9244444,17.8888889 C43.5488889,17.8888889 44.5555556,16.8866667 44.5555556,15 L44.5555556,14.2911111 L44.48,14.2911111 C43.9955556,14.8888889 43.0622222,15.4111111 41.8844444,15.4111111 C39.42,15.4111111 37.1622222,13.2644444 37.1622222,10.5022222 C37.1622222,7.72 39.42,5.55555556 41.8844444,5.55555556 C43.06,5.55555556 43.9933333,6.07777778 44.48,6.65777778 L44.5555556,6.65777778 L44.5555556,5.85555556 L46.6111111,5.85555556 L46.6111111,5.85333333 Z M44.7088889,10.5022222 C44.7088889,8.76666667 43.5511111,7.49777778 42.0777778,7.49777778 C40.5844444,7.49777778 39.3333333,8.76666667 39.3333333,10.5022222 C39.3333333,12.22 40.5844444,13.4711111 42.0777778,13.4711111 C43.5511111,13.4711111 44.7088889,12.22 44.7088889,10.5022222 Z" id="Shape" fill="#4285F4"></path>
                        <polygon id="Shape" fill="#34A853" points="50 0.666666667 50 15.1111111 47.8888889 15.1111111 47.8888889 0.666666667"></polygon>
                        <path d="M58.2266667,12.1066667 L59.9066667,13.2266667 C59.3644444,14.0288889 58.0577778,15.4111111 55.8,15.4111111 C53,15.4111111 50.9088889,13.2466667 50.9088889,10.4822222 C50.9088889,7.55111111 53.0177778,5.55333333 55.5577778,5.55333333 C58.1155556,5.55333333 59.3666667,7.58888889 59.7755556,8.68888889 L60,9.24888889 L53.4111111,11.9777778 C53.9155556,12.9666667 54.7,13.4711111 55.8,13.4711111 C56.9022222,13.4711111 57.6666667,12.9288889 58.2266667,12.1066667 Z M53.0555556,10.3333333 L57.46,8.50444444 C57.2177778,7.88888889 56.4888889,7.46 55.6311111,7.46 C54.5311111,7.46 53,8.43111111 53.0555556,10.3333333 L53.0555556,10.3333333 Z" id="Shape" fill="#EA4335"></path>
                        <path d="M7.84222222,9.20222222 L7.84222222,7.11111111 L14.8888889,7.11111111 C14.9577778,7.47555556 14.9933333,7.90666667 14.9933333,8.37333333 C14.9933333,9.94222222 14.5644444,11.8822222 13.1822222,13.2644444 C11.8377778,14.6644444 10.12,15.4111111 7.84444444,15.4111111 C3.62666667,15.4111111 0.08,11.9755556 0.08,7.75777778 C0.08,3.54 3.62666667,0.104444444 7.84444444,0.104444444 C10.1777778,0.104444444 11.84,1.02 13.0888889,2.21333333 L11.6133333,3.68888889 C10.7177778,2.84888889 9.50444444,2.19555556 7.84222222,2.19555556 C4.76222222,2.19555556 2.35333333,4.67777778 2.35333333,7.75777778 C2.35333333,10.8377778 4.76222222,13.32 7.84222222,13.32 C9.84,13.32 10.9777778,12.5177778 11.7066667,11.7888889 C12.2977778,11.1977778 12.6866667,10.3533333 12.84,9.2 L7.84222222,9.20222222 L7.84222222,9.20222222 Z" id="Shape" fill="#4285F4"></path>
                    </g>
                </g>
            </g>
        </g>
    </g>
</svg>
