<svg width="264.58333" height="73.375368" xmlns="http://www.w3.org/2000/svg">

 <metadata id="metadata5">image/svg+xml</metadata>
 <g>
  <title>Layer 1</title>
  <g id="layer1">
   <path fill="#ffffff" stroke-width="0.08756" stroke-linejoin="round" stroke-miterlimit="2.6131" id="path1139" d="m-0.00001,17.86226l15.74097,0l9.16577,23.44972l9.28475,-23.44972l15.32641,0l-23.07818,55.51311l-15.42354,0l6.31728,-14.7101l-17.33346,-40.80301z"/>
   <path fill="#ffffff" stroke-width="0.08756" stroke-linejoin="round" stroke-miterlimit="2.6131" id="path1141" d="m65.484,16.92875c-11.82693,0 -19.30359,10.60691 -19.30359,21.1697c0,11.88625 8.19723,21.30993 19.07922,21.30993c8.11755,0 11.17827,-4.94575 11.17827,-4.94575l0,3.85265l13.72915,0l0,-40.45277l-13.72915,0l0,3.67752c0,0 -3.41477,-4.61128 -10.9539,-4.61128zm2.92026,12.99993c5.45704,0 8.27307,4.318 8.27307,8.21422c0,4.19549 -3.01696,8.31274 -8.27307,8.31274c-4.35623,0 -8.29289,-3.55998 -8.29289,-8.13419c0,-4.63893 3.16648,-8.39277 8.29289,-8.39277z"/>
   <path fill="#ffffff" stroke-width="0.08756" stroke-linejoin="round" stroke-miterlimit="2.6131" id="path1145" d="m94.8953,58.31503l0,-58.31503l14.35985,0l0,21.68009c0,0 3.41082,-4.74634 10.5543,-4.74634c8.73797,0 13.85746,6.5105 13.85746,15.81373l0,25.56755l-14.25479,0l0,-22.06515c0,-3.14841 -1.49969,-6.1899 -4.89676,-6.1899c-3.45803,0 -5.26021,3.08758 -5.26021,6.1899l0,22.06515l-14.35985,0z"/>
   <path fill="#ffffff" stroke-width="0.08756" stroke-linejoin="round" stroke-miterlimit="2.6131" id="path1147" d="m158.14995,16.93354c-13.54405,0 -21.60888,10.29891 -21.60888,21.3332c0,12.55721 9.76468,21.14164 21.66017,21.14164c11.52965,0 21.61846,-8.19486 21.61846,-20.93097c0,-13.93561 -10.5633,-21.54387 -21.66975,-21.54387zm0.12933,13.11418c4.78424,0 8.09451,3.98476 8.09451,8.23405c0,3.62432 -3.08457,8.09455 -8.09451,8.09455c-4.5906,0 -8.03569,-3.68236 -8.03569,-8.1342c0,-4.28855 2.86425,-8.1944 8.03569,-8.1944z"/>
   <path fill="#ffffff" stroke-width="0.08756" stroke-linejoin="round" stroke-miterlimit="2.6131" d="m203.74252,16.93354c-13.54404,0 -21.60887,10.29891 -21.60887,21.3332c0,12.55721 9.76468,21.14164 21.66017,21.14164c11.52964,0 21.61846,-8.19486 21.61846,-20.93097c0,-13.93561 -10.56328,-21.54387 -21.66976,-21.54387zm0.12933,13.11418c4.78423,0 8.09452,3.98476 8.09452,8.23405c0,3.62432 -3.08459,8.09455 -8.09452,8.09455c-4.59061,0 -8.03569,-3.68236 -8.03569,-8.1342c0,-4.28855 2.86425,-8.1944 8.03569,-8.1944z" id="path1153"/>
   <circle fill="#ffffff" stroke-width="0.08829" stroke-linejoin="round" stroke-miterlimit="2.6131" r="9.53548" cy="49.63838" cx="236.74324" id="path1155"/>
   <path fill="#ffffff" stroke-width="0.08756" stroke-linejoin="round" stroke-miterlimit="2.6131" id="path1157" d="m249.412,36.60012l-17.16636,0l15.23543,-36.60012l17.10225,0l-15.17132,36.60012z"/>
  </g>
 </g>
</svg>