<?xml version="1.0" encoding="utf-8"?>
<!-- Generator: Adobe Illustrator 18.0.0, SVG Export Plug-In . SVG Version: 6.00 Build 0)  -->
<!DOCTYPE svg PUBLIC "-//W3C//DTD SVG 1.1//EN" "http://www.w3.org/Graphics/SVG/1.1/DTD/svg11.dtd">
<svg version="1.1" id="Слой_1" xmlns="http://www.w3.org/2000/svg" xmlns:xlink="http://www.w3.org/1999/xlink" x="0px" y="0px"
	 viewBox="0 0 60 23" enable-background="new 0 0 60 23" xml:space="preserve">
<path id="XMLID_3_" fill="#FFFFFF" d="M6.8,12.6l-3.4,7.6H0.9l3.7-8.1c-1.7-0.9-2.9-2.5-2.9-5.5c0-4.2,2.6-6.2,5.8-6.2h3.2v19.9H8.6
	v-7.6H6.8z M8.6,2.2H7.4c-1.7,0-3.4,1.1-3.4,4.4c0,3.2,1.5,4.2,3.4,4.2h1.1V2.2z"/>
<path id="XMLID_6_" fill="#FFFFFF" d="M21,6.2v14h-2.1V14h-3.2v6.3h-2.2v-14h2.2v5.9h3.2V6.2H21z M32.2,23h-1.9v-2.8h-6V23h-1.9
	v-4.5h0.9c1.3-3,1.4-7.3,1.4-11V6.2h6.5v12.2h1.1V23z M28.9,8h-2.4v0.2c0,2.9-0.1,7.3-1.3,10.2h3.7V8z M38.1,20.4
	c-2.9,0-4.7-2.3-4.7-6.6c0-4.5,1.3-7.8,4.2-7.8c2.3,0,3.9,1.7,3.9,6.5v1.2h-5.8c0,3.2,0.9,4.8,2.6,4.8c1.2,0,2.2-0.6,2.8-0.9
	l0.5,1.7C40.7,20,39.5,20.4,38.1,20.4z M35.8,12h3.6c0-2.4-0.4-4.1-1.6-4.1C36.4,7.8,35.9,9.5,35.8,12z M45.9,13.3v7h-2.2v-14h2.2
	v6.5l3.4-6.5h2.2L48,12.8l4,7.4h-2.4L45.9,13.3z M52.3,13.3c0-4.4,1.7-7.2,5-7.2c1.2,0,2,0.3,2.6,0.7l-0.3,2.1c-0.6-0.5-1.4-1-2.3-1
	c-1.6,0-2.7,1.7-2.7,5.3c0,3.5,0.8,5.5,2.6,5.5c1.1,0,1.9-0.4,2.4-0.9l0.5,1.6c-0.7,0.6-1.6,1.1-2.9,1.1
	C54.1,20.4,52.3,18,52.3,13.3z"/>
</svg>
