<?xml version="1.0" encoding="UTF-8"?>
<svg width="60px" height="14px" viewBox="0 0 60 14" version="1.1" xmlns="http://www.w3.org/2000/svg" xmlns:xlink="http://www.w3.org/1999/xlink">
    <!-- Generator: Sketch 44.1 (41455) - http://www.bohemiancoding.com/sketch -->
    <title>yahoo color</title>
    <desc>Created with Sketch.</desc>
    <defs>
        <linearGradient x1="14.9747423%" y1="52.804828%" x2="81.4960028%" y2="47.6847241%" id="linearGradient-1">
            <stop stop-color="#210045" offset="0%"></stop>
            <stop stop-color="#430085" offset="59.415621%"></stop>
            <stop stop-color="#5000B2" offset="100%"></stop>
        </linearGradient>
        <linearGradient x1="6.47374515%" y1="37.624963%" x2="96.8697263%" y2="62.874107%" id="linearGradient-2">
            <stop stop-color="#5500BD" offset="0%"></stop>
            <stop stop-color="#5000AC" offset="100%"></stop>
        </linearGradient>
        <linearGradient x1="67.7220118%" y1="55.5251676%" x2="81.9806436%" y2="55.0573755%" id="linearGradient-3">
            <stop stop-color="#2A005A" offset="0%"></stop>
            <stop stop-color="#210046" offset="100%"></stop>
        </linearGradient>
        <linearGradient x1="25.2658172%" y1="60.0174141%" x2="99.4602805%" y2="42.7826152%" id="linearGradient-4">
            <stop stop-color="#21004E" offset="0%"></stop>
            <stop stop-color="#39007F" offset="100%"></stop>
        </linearGradient>
        <linearGradient x1="31.5262065%" y1="56.3692741%" x2="43.2134571%" y2="58.8928134%" id="linearGradient-5">
            <stop stop-color="#1B0041" offset="0%"></stop>
            <stop stop-color="#21004F" offset="100%"></stop>
        </linearGradient>
        <linearGradient x1="86.9728324%" y1="30.6197212%" x2="12.0755496%" y2="68.2994028%" id="linearGradient-6">
            <stop stop-color="#5500BD" offset="0%"></stop>
            <stop stop-color="#47008D" offset="100%"></stop>
        </linearGradient>
        <linearGradient x1="20.051225%" y1="33.8185681%" x2="99.7336236%" y2="65.1759242%" id="linearGradient-7">
            <stop stop-color="#5100B2" offset="0%"></stop>
            <stop stop-color="#5500BD" offset="100%"></stop>
        </linearGradient>
        <linearGradient x1="72.6049441%" y1="64.4444697%" x2="84.6078984%" y2="62.0134418%" id="linearGradient-8">
            <stop stop-color="#27005D" stop-opacity="0.98039216" offset="0%"></stop>
            <stop stop-color="#2B005D" offset="31.76744%"></stop>
            <stop stop-color="#280055" offset="59.756237%"></stop>
            <stop stop-color="#24004D" offset="80.877602%"></stop>
            <stop stop-color="#230049" offset="100%"></stop>
        </linearGradient>
        <linearGradient x1="32.8880034%" y1="47.958214%" x2="96.37919%" y2="52.0306913%" id="linearGradient-9">
            <stop stop-color="#5500BD" offset="0%"></stop>
            <stop stop-color="#5300B5" offset="100%"></stop>
        </linearGradient>
        <linearGradient x1="84.9943307%" y1="0.479772846%" x2="84.9943307%" y2="100.040254%" id="linearGradient-10">
            <stop stop-color="#210045" offset="0%"></stop>
            <stop stop-color="#25004D" offset="25%"></stop>
            <stop stop-color="#2B005C" offset="50%"></stop>
            <stop stop-color="#340071" offset="74.854362%"></stop>
            <stop stop-color="#3E0088" offset="100%"></stop>
        </linearGradient>
        <linearGradient x1="1.85805624%" y1="61.607944%" x2="99.9098093%" y2="39.0110789%" id="linearGradient-11">
            <stop stop-color="#4D00A1" offset="0%"></stop>
            <stop stop-color="#5200B4" offset="100%"></stop>
        </linearGradient>
        <linearGradient x1="0.225906038%" y1="66.1455343%" x2="99.6435665%" y2="66.1455343%" id="linearGradient-12">
            <stop stop-color="#6700E8" offset="0%"></stop>
            <stop stop-color="#6700E8" offset="50.604492%"></stop>
            <stop stop-color="#6700E8" offset="100%"></stop>
        </linearGradient>
        <linearGradient x1="27.5986427%" y1="43.412674%" x2="99.5633058%" y2="43.412674%" id="linearGradient-13">
            <stop stop-color="#5A00C9" offset="0%"></stop>
            <stop stop-color="#4F00A8" offset="100%"></stop>
        </linearGradient>
        <linearGradient x1="0.928796779%" y1="1.75367288%" x2="100.982139%" y2="1.75367288%" id="linearGradient-14">
            <stop stop-color="#390080" offset="0%"></stop>
            <stop stop-color="#31006E" offset="50%"></stop>
            <stop stop-color="#250056" offset="100%"></stop>
        </linearGradient>
        <linearGradient x1="-1.29074335%" y1="97.0614422%" x2="72.6865423%" y2="97.0614422%" id="linearGradient-15">
            <stop stop-color="#3F008B" offset="0%"></stop>
            <stop stop-color="#220050" offset="100%"></stop>
        </linearGradient>
        <linearGradient x1="0.0614877543%" y1="56.3143491%" x2="99.9704294%" y2="56.3143491%" id="linearGradient-16">
            <stop stop-color="#6700E8" offset="0%"></stop>
            <stop stop-color="#6700E8" offset="50%"></stop>
            <stop stop-color="#6700E8" offset="100%"></stop>
        </linearGradient>
        <linearGradient x1="70.1336478%" y1="8.4081453%" x2="15.0841296%" y2="82.4662018%" id="linearGradient-17">
            <stop stop-color="#1C0044" offset="0%"></stop>
            <stop stop-color="#2F0065" offset="10.005283%"></stop>
            <stop stop-color="#34006D" offset="20.479059%"></stop>
            <stop stop-color="#3B007A" offset="30.000001%"></stop>
            <stop stop-color="#3C007A" offset="40.000001%"></stop>
            <stop stop-color="#490096" offset="50%"></stop>
            <stop stop-color="#5000AB" offset="60.000002%"></stop>
            <stop stop-color="#5400BA" offset="70.02604%"></stop>
            <stop stop-color="#5500BC" offset="80.312496%"></stop>
            <stop stop-color="#5700C2" offset="89.999998%"></stop>
            <stop stop-color="#5C00CE" offset="100%"></stop>
        </linearGradient>
        <linearGradient x1="18.8423123%" y1="88.9542935%" x2="75.1737521%" y2="7.07921876%" id="linearGradient-18">
            <stop stop-color="#1B0041" offset="0%"></stop>
            <stop stop-color="#1B0041" offset="10.005283%"></stop>
            <stop stop-color="#1B0041" offset="20.479059%"></stop>
            <stop stop-color="#240052" offset="30.000001%"></stop>
            <stop stop-color="#32006A" offset="40.000001%"></stop>
            <stop stop-color="#3D007D" offset="50%"></stop>
            <stop stop-color="#490098" offset="60.000002%"></stop>
            <stop stop-color="#4F00A8" offset="70.02604%"></stop>
            <stop stop-color="#5500BC" offset="80.312496%"></stop>
            <stop stop-color="#5700C2" offset="89.999998%"></stop>
            <stop stop-color="#6000DA" offset="100%"></stop>
        </linearGradient>
        <linearGradient x1="61.7816321%" y1="2.02790079%" x2="16.9580641%" y2="87.1886636%" id="linearGradient-19">
            <stop stop-color="#1E0046" offset="0%"></stop>
            <stop stop-color="#2D0061" offset="10.005283%"></stop>
            <stop stop-color="#33006B" offset="20.479059%"></stop>
            <stop stop-color="#400082" offset="30.000001%"></stop>
            <stop stop-color="#490096" offset="40.000001%"></stop>
            <stop stop-color="#5000AC" offset="50%"></stop>
            <stop stop-color="#5500BD" offset="60.000002%"></stop>
            <stop stop-color="#4F00A8" offset="70.02604%"></stop>
            <stop stop-color="#5500BC" offset="80.312496%"></stop>
            <stop stop-color="#5700C2" offset="89.999998%"></stop>
            <stop stop-color="#6000DA" offset="100%"></stop>
        </linearGradient>
        <linearGradient x1="24.8637762%" y1="92.3181485%" x2="68.1061611%" y2="3.94792241%" id="linearGradient-20">
            <stop stop-color="#1B0041" offset="0%"></stop>
            <stop stop-color="#1B0041" offset="10.005283%"></stop>
            <stop stop-color="#1B0041" offset="20.479059%"></stop>
            <stop stop-color="#240052" offset="30.000001%"></stop>
            <stop stop-color="#32006A" offset="40.000001%"></stop>
            <stop stop-color="#3D007D" offset="50%"></stop>
            <stop stop-color="#490098" offset="60.000002%"></stop>
            <stop stop-color="#4F00A8" offset="70.02604%"></stop>
            <stop stop-color="#5500BC" offset="80.312496%"></stop>
            <stop stop-color="#5700C2" offset="89.999998%"></stop>
            <stop stop-color="#6000DA" offset="100%"></stop>
        </linearGradient>
        <radialGradient cx="55.0289409%" cy="19.9036504%" fx="55.0289409%" fy="19.9036504%" r="81.986017%" gradientTransform="translate(0.550289,0.199037),scale(0.963916,1.000000),translate(-0.550289,-0.199037)" id="radialGradient-21">
            <stop stop-color="#6000D8" offset="0%"></stop>
            <stop stop-color="#5C00CD" offset="20.885758%"></stop>
            <stop stop-color="#5500BE" offset="37.415123%"></stop>
            <stop stop-color="#2D0062" offset="72.099608%"></stop>
            <stop stop-color="#210045" offset="100%"></stop>
        </radialGradient>
        <linearGradient x1="-0.210019779%" y1="51.8128226%" x2="66.9345913%" y2="48.5766268%" id="linearGradient-22">
            <stop stop-color="#47008D" offset="0%"></stop>
            <stop stop-color="#5100B3" offset="100%"></stop>
        </linearGradient>
        <linearGradient x1="-0.580778823%" y1="69.3447414%" x2="99.5801094%" y2="69.3447414%" id="linearGradient-23">
            <stop stop-color="#5500BD" offset="0%"></stop>
            <stop stop-color="#5200B2" offset="100%"></stop>
        </linearGradient>
        <radialGradient cx="53.2966025%" cy="32.3893815%" fx="53.2966025%" fy="32.3893815%" r="50.0000756%" gradientTransform="translate(0.532966,0.323894),scale(0.877053,1.000000),translate(-0.532966,-0.323894)" id="radialGradient-24">
            <stop stop-color="#6700E8" offset="0%"></stop>
            <stop stop-color="#5C00CE" offset="39.935982%"></stop>
            <stop stop-color="#5600BF" stop-opacity="0.04504504" offset="70.123935%"></stop>
            <stop stop-color="#220047" stop-opacity="0" offset="100%"></stop>
        </radialGradient>
    </defs>
    <g id="Page-1" stroke="none" stroke-width="1" fill="none" fill-rule="evenodd">
        <g id="search-select-other-photo" transform="translate(-435.000000, -437.000000)" fill-rule="nonzero">
            <g id="yahoo-color" transform="translate(435.000000, 437.000000)">
                <path d="M59.2032264,0.1908224 C59.662923,0.267984414 59.97,0.550477704 59.97,1.03684277 C59.97,1.19780894 59.9039412,1.42445688 59.8597602,1.61602319 C59.5517394,2.97914488 58.3488198,7.7954548 57.842385,11.0101763 L57.37638,10.5423438 L58.8595434,0.653835445 L59.2032264,0.1908224 Z" id="Shape" fill="url(#linearGradient-1)"></path>
                <path d="M29.22699,1.49952151 C28.6061988,1.64876167 27.996639,1.64466206 27.3974094,1.49952151 L28.3487916,2.49136911 L29.22699,1.49952151 Z" id="Shape" fill="#6700E8"></path>
                <path d="M19.7162838,1.49952151 C20.337075,1.64876167 20.9466348,1.64466206 21.5458644,1.49952151 L20.5944829,2.49136911 L19.7162838,1.49952151 Z" id="Shape" fill="#6700E8"></path>
                <path d="M14.346324,1.49564596 C15.7493034,5.06023273 17.9572158,10.4556231 19.0573494,12.5177555 L17.4287106,12.0181356 L13.39881,1.90062472 L14.346324,1.49564596 Z" id="Shape" fill="url(#linearGradient-2)"></path>
                <path d="M13.070622,1.49535925 C13.51869,1.64605772 13.89033,1.6552966 14.34645,1.49535925 L13.439682,2.05456685 L13.070622,1.49535925 Z" id="Shape" fill="#6700E8"></path>
                <path d="M13.714974,1.88439131 L17.8212906,11.994868 C17.5783362,12.2590226 17.4699918,12.3976276 17.2337723,12.5211973 C16.0435848,9.44369604 14.765442,6.36542313 13.682616,3.32766208 L13.148094,2.41789892 L13.714974,1.88439131 Z" id="Shape" fill="url(#linearGradient-3)"></path>
                <path d="M10.183332,12.5173586 L8.971092,12.0863238 L13.23957,2.0321804 L13.715262,1.88453105 L13.715262,3.37301142 C13.051536,5.29567504 11.367144,9.51410628 10.183332,12.5173586 L10.183332,12.5173586 Z" id="Shape" fill="url(#linearGradient-4)"></path>
                <path d="M9.177906,0.0301176471 L9.58041,0.948495059 L10.604976,0.470938805 L11.021634,0.0301176471 C10.36254,0.180213158 9.768078,0.185201845 9.177906,0.0301176471 L9.177906,0.0301176471 Z" id="Shape" fill="#6700E8"></path>
                <path d="M6.287166,8.03836928 L5.591922,8.29551495 L5.152824,7.52407793 L9.507228,0.544408998 L9.818544,0.437359435 C10.248252,0.339871624 10.716924,0.235327247 11.022186,0.0301176471 C10.330662,0.96794624 7.812618,5.35151616 6.287166,8.03836928 L6.287166,8.03836928 Z" id="Shape" fill="url(#linearGradient-5)"></path>
                <path d="M5.335782,7.92816399 L5.51874,7.74448851 L9.826422,0.435786692 L9.177906,0.0301176471 C8.657814,1.0026496 6.739614,4.14972025 5.51874,6.16487936 L4.933272,7.26693226 L5.335782,7.92816399 Z" id="Shape" fill="url(#linearGradient-6)"></path>
                <path d="M1.85958,0.0301176471 C2.814546,1.72916374 4.280514,4.10605327 5.51874,6.16487936 L5.51874,7.74448851 L5.226006,8.03836928 L0.94479,0.397468612 L1.85958,0.0301176471 Z" id="Shape" fill="url(#linearGradient-7)"></path>
                <path d="M5.51874,7.74448851 L5.189418,8.22204476 L4.750314,8.03836928 C3.932802,6.61985822 1.529664,2.29873785 0.03,0.0301176471 C0.33399,0.251263096 0.744684,0.372613722 1.21902,0.449952226 L5.51874,7.74448851 Z" id="Shape" fill="url(#linearGradient-8)"></path>
                <polygon id="Shape" fill="url(#linearGradient-9)" points="6.396936 13.9527198 5.152824 13.3649582 5.2626 8.14857456 5.51874 7.74448851 6.287166 8.03836928"></polygon>
                <polygon id="Shape" fill="url(#linearGradient-10)" points="5.51874 13.5486338 4.640544 13.9527198 4.750314 8.03836928 5.51874 7.74448851"></polygon>
                <path d="M8.372886,12.5200511 C9.899496,9.39598065 11.597106,5.20658884 13.070532,1.49475689 L13.715262,1.88472922 L9.547536,12.1199839 L8.702214,12.4098458 L8.372886,12.5200511 Z" id="Shape" fill="url(#linearGradient-11)"></path>
                <path d="M17.7776532,11.9765004 L19.0587834,12.5181669 C18.5673354,12.3937888 17.9020986,12.3460958 17.2335642,12.5213232 L17.4836934,11.9028694 L17.7776532,11.9765004 Z" id="Shape" fill="#200045"></path>
                <path d="M10.861524,8.90593099 L11.762268,8.51791993 C13.05975,8.56370658 14.357232,8.56304941 15.6547129,8.51791993 L16.5683946,8.91729318 L15.7177812,9.10399548 L11.506758,9.10399548 L10.861524,8.90593099 Z" id="Shape" fill="url(#linearGradient-12)"></path>
                <path d="M21.5458644,12.5200511 L20.2651584,12.0792299 L20.2651584,2.19748834 L20.6310744,2.01381286 L21.5458644,1.49952151 C21.3560436,5.16652935 21.3518844,8.84005406 21.5458644,12.5200511 L21.5458644,12.5200511 Z" id="Shape" fill="url(#linearGradient-13)"></path>
                <path d="M20.6310744,12.0057596 L20.6310744,12.2629054 L19.7162838,12.5200511 C19.8617479,8.85238242 19.8756198,5.17943055 19.7162838,1.49952151 L20.6310744,2.01381286 L20.6310744,12.0057596 Z" id="Shape" fill="url(#linearGradient-14)"></path>
                <path d="M27.3974094,12.5200511 L28.678116,12.0792299 L28.678116,2.19748834 L28.3122,2.01381286 L27.3974094,1.49952151 C27.5872302,5.16652935 27.5913894,8.84005406 27.3974094,12.5200511 L27.3974094,12.5200511 Z" id="Shape" fill="url(#linearGradient-15)"></path>
                <path d="M20.6346821,6.98698149 L21.4036302,6.64280245 C23.4470677,6.69450722 25.4929116,6.69064313 27.54066,6.64280245 L28.3120338,6.98698149 L27.3579234,7.21588887 L21.3971616,7.21588887 L20.6346821,6.98698149 Z" id="Shape" fill="url(#linearGradient-16)"></path>
                <path d="M35.6850882,1.4953996 C32.091363,1.4953996 30.2981184,3.75105958 30.2981184,7.03092013 C30.2981184,11.138804 33.0123473,12.5618484 35.6382054,12.5618484 C38.7572077,12.5618484 40.9931592,10.8000443 40.9931592,7.04125349 C40.9931592,3.42373195 38.8766862,1.4953996 35.6850882,1.4953996 L35.6850882,1.4953996 Z M35.5776006,2.01887504 C35.611377,2.01817631 35.6454727,2.01887504 35.6793708,2.01887504 C38.052834,2.01887504 39.7959258,3.64184275 39.7959258,7.03321569 C39.7959258,10.4203059 38.0551206,12.0429652 35.6839446,12.0429652 C33.096765,12.0429652 31.5765371,10.1817519 31.5765371,7.04239978 C31.5765371,3.49189 33.4496814,2.06264139 35.5776006,2.01887504 L35.5776006,2.01887504 Z" id="Shape" fill="url(#linearGradient-17)"></path>
                <path d="M35.6725098,1.35075539 C31.7912077,1.35075539 29.7549618,3.82136681 29.7549618,7.02403222 C29.7549618,10.5294938 31.977987,12.6674619 35.6667923,12.6674619 C39.6548802,12.6674619 41.6026362,10.2580031 41.6026362,7.06076732 C41.6026362,3.49602996 39.276534,1.35075539 35.6725098,1.35075539 L35.6725098,1.35075539 Z M35.6839446,1.71581019 C38.748462,1.71581019 40.7804706,3.56662393 40.7804706,7.0401036 C40.7804706,10.6492284 38.6330154,12.3414378 35.6382054,12.3414378 C33.1169029,12.3414378 30.510807,10.9752374 30.510807,7.03092013 C30.510807,3.88165692 32.2333129,1.71581019 35.6839446,1.71581019 L35.6839446,1.71581019 Z" id="Shape" fill="url(#linearGradient-18)"></path>
                <path d="M49.0959127,0.931743624 C45.4485894,0.931743624 42.949665,3.00182528 42.949665,7.03666176 C42.949665,10.994744 45.2744573,13.2058588 49.1107758,13.2058588 C52.0163466,13.2058588 55.1998494,11.7076799 55.1998494,7.09291068 C55.1998494,2.11239153 51.7225673,0.931743624 49.0959127,0.931743624 L49.0959127,0.931743624 Z M49.0764714,1.37256478 C51.9790271,1.37256478 54.1169646,3.14277045 54.1169646,7.04699151 C54.1169646,11.2910896 51.5307984,12.6674619 49.0810452,12.6674619 C46.463721,12.6674619 44.0794308,11.125451 44.0794308,6.96319156 C44.0794308,2.64906933 46.7221896,1.37256478 49.0764714,1.37256478 L49.0764714,1.37256478 Z" id="Shape" fill="url(#linearGradient-19)"></path>
                <path d="M49.0718977,0.687227482 C45.2066827,0.687227482 42.2521373,2.89060261 42.2521373,6.98729713 C42.2521373,10.3625879 44.217414,13.3332853 49.1039148,13.3332853 C53.2408704,13.3332853 55.9419708,11.0499238 55.9419708,7.04699151 C55.9419708,3.27223959 53.4222252,0.687227482 49.0718977,0.687227482 L49.0718977,0.687227482 Z M49.0959127,1.09820145 C51.651144,1.09820145 55.0340418,2.24782275 55.0340418,7.09291068 C55.0340418,11.5821966 51.9361927,13.0394046 49.109634,13.0394046 C45.377631,13.0394046 43.1166138,10.8882637 43.1166138,7.03780804 C43.1166138,3.11268834 45.5477677,1.09820145 49.0959127,1.09820145 L49.0959127,1.09820145 Z" id="Shape" fill="url(#linearGradient-20)"></path>
                <path d="M56.240397,13.1505248 C56.240397,12.6765501 56.5275023,12.2357953 57.1030518,12.2357953 C57.6539527,12.2357953 58.066179,12.5665581 58.066179,13.0948782 C58.066179,13.7531127 57.6322758,13.9956965 57.2347044,13.9956965 C56.6850036,13.9956965 56.240397,13.7093427 56.240397,13.1505248 L56.240397,13.1505248 Z" id="Shape" fill="url(#radialGradient-21)"></path>
                <path d="M57.159516,10.9050404 C57.6056484,7.73924261 57.8770188,4.41212988 58.1375802,1.09463853 C58.1375802,0.433439322 58.5729036,0.174835351 59.012145,0.174835351 C59.0891268,0.174835351 59.202663,0.190936245 59.202663,0.190936245 L59.083188,0.983966419 L57.5184066,10.8171186 L57.159516,10.9050404 Z" id="Shape" fill="url(#linearGradient-22)"></path>
                <path d="M4.640544,13.9527198 L5.520378,13.3055946 L6.396936,13.9527198 C6.396936,13.9527198 5.911014,13.8639499 5.52036,13.8639499 C5.167872,13.8639499 4.640544,13.9527198 4.640544,13.9527198 L4.640544,13.9527198 Z" id="Shape" fill="#200045"></path>
                <path d="M8.372748,12.5214141 L9.600078,11.9887149 C9.787344,12.2141142 9.95394,12.4051215 10.183944,12.5181669 C9.74211,12.3981385 9.073218,12.3442851 8.372886,12.5200402 L8.372748,12.5214141 Z" id="Shape" fill="#200045"></path>
                <path d="M19.7162838,12.5200511 C20.3104668,12.3763032 20.9189046,12.3699441 21.5435771,12.5200511 L20.6310744,12.0057596 L19.7162838,12.5200511 Z" id="Shape" fill="#200045"></path>
                <path d="M28.3122,12.0057596 L28.3122,12.2629054 L29.22699,12.5200511 C29.081526,8.85238242 29.067654,5.17943055 29.22699,1.49952151 L28.3122,2.01381286 L28.3122,12.0057596 Z" id="Shape" fill="url(#linearGradient-23)"></path>
                <path d="M29.22699,12.5200511 C28.632807,12.3763032 28.0243692,12.3699441 27.3996966,12.5200511 L28.3122,12.0057596 L29.22699,12.5200511 Z" id="Shape" fill="#200045"></path>
                <path d="M59.9479461,0.976590619 C59.9479461,1.40852192 59.5487147,1.75866987 59.0562359,1.75866987 C58.5637571,1.75866987 58.1645257,1.40852192 58.1645257,0.976590619 C58.1645257,0.544662993 58.5637571,0.194515045 59.0562359,0.194515045 C59.5487147,0.194515045 59.9479461,0.544662993 59.9479461,0.976590619 L59.9479461,0.976590619 Z" id="Shape" fill="url(#radialGradient-24)"></path>
            </g>
        </g>
    </g>
</svg>
