<?xml version="1.0" encoding="UTF-8"?>
<svg width="24px" height="22px" viewBox="0 0 24 22" version="1.1" xmlns="http://www.w3.org/2000/svg" xmlns:xlink="http://www.w3.org/1999/xlink">
    <!-- Generator: Sketch 44.1 (41455) - http://www.bohemiancoding.com/sketch -->
    <title>img</title>
    <desc>Created with Sketch.</desc>
    <defs></defs>
    <g id="Page-1" stroke="none" stroke-width="1" fill="none" fill-rule="evenodd">
        <g id="search-select" transform="translate(-1029.000000, -70.000000)" fill-rule="nonzero" fill="#FFFFFF">
            <g id="Group-6" transform="translate(1029.000000, 56.000000)">
                <g id="Group-5" transform="translate(0.000000, 14.000000)">
                    <g id="img">
                        <path d="M10.375305,16.7808688 C10.7962695,17.1176404 11.4084165,17.0601048 11.7592566,16.6507914 L17.1174412,10.399576 L22.3598156,14.7682213 C22.7840925,15.1217854 23.4146572,15.0644613 23.7682213,14.6401844 C24.1217854,14.2159075 24.0644613,13.5853428 23.6401844,13.2317787 L17.6401844,8.23177872 C17.2200681,7.88168177 16.596641,7.93399479 16.2407434,8.34920863 L10.8698478,14.6152534 L6.62469505,11.2191312 C6.2594764,10.9269563 5.7405236,10.9269563 5.37530495,11.2191312 L0.375304952,15.2191312 C-0.0559569826,15.5641407 -0.125878358,16.1934331 0.219131191,16.624695 C0.564140739,17.055957 1.19343311,17.1258784 1.62469505,16.7808688 L6,13.2806248 L10.375305,16.7808688 Z" id="Stroke-3"></path>
                        <path d="M2,20 L22,20 L22,2 L2,2 L2,20 Z M1,0 L23,0 C23.5522847,0 24,0.44771525 24,1 L24,21 C24,21.5522847 23.5522847,22 23,22 L1,22 C0.44771525,22 0,21.5522847 0,21 L0,1 C0,0.44771525 0.44771525,0 1,0 Z" id="Stroke-5"></path>
                        <path d="M12.121315,9.12132259 C10.949741,10.2928905 9.05025348,10.2928905 7.87867877,9.12132033 C6.70710708,7.94974714 6.70710708,6.05025286 7.87867967,4.87867877 C9.05025278,3.70710715 10.9497417,3.70710715 12.1213159,4.87867831 C13.2928912,6.05025216 13.2928912,7.94974784 12.121315,9.12132259 Z M9.29289323,6.29289233 C8.90236892,6.68341714 8.90236892,7.31658286 9.29289142,7.70710586 C9.68341652,8.09762946 10.316579,8.09762946 10.7071037,7.70710677 C11.0976288,7.31658216 11.0976288,6.68341784 10.7071037,6.29289323 C10.3165778,5.90236885 9.68341706,5.902369 9.29289323,6.29289233 Z" id="Stroke-7"></path>
                    </g>
                </g>
            </g>
        </g>
    </g>
</svg>
